<svg xmlns="http://www.w3.org/2000/svg" viewBox="0 0 1280 768" width="1280" height="768"><defs><linearGradient id="capsid" x1="0%" y1="20%" x2="100%" y2="80%"><stop offset="0%" stop-color="#00cc6a"></stop><stop offset="55%" stop-color="#00ff88"></stop><stop offset="100%" stop-color="#7cffb4"></stop></linearGradient><radialGradient id="glow" cx="50%" cy="45%" r="55%"><stop offset="0%" stop-color="#00ff88" stop-opacity="0.18"></stop><stop offset="70%" stop-color="#00ff88" stop-opacity="0.05"></stop><stop offset="100%" stop-color="#00ff88" stop-opacity="0"></stop></radialGradient></defs><circle cx="640" cy="330" r="250" fill="url(#glow)"></circle><circle cx="640" cy="330" r="250" fill="url(#capsid)" fill-opacity="0.12"></circle><g><polygon points="755.7,291.2 633.6,344.0 657.5,196.4" fill="#15ff8f" fill-opacity="0.09"></polygon><polygon points="755.7,291.2 754.5,426.6 633.6,344.0" fill="#25ff95" fill-opacity="0.09"></polygon><polygon points="633.6,344.0 515.2,256.1 657.5,196.4" fill="#00f783" fill-opacity="0.09"></polygon><polygon points="513.5,392.7 515.2,256.1 633.6,344.0" fill="#00ed7e" fill-opacity="0.09"></polygon><polygon points="513.5,392.7 633.6,344.0 612.2,486.3" fill="#00f482" fill-opacity="0.09"></polygon><polygon points="612.2,486.3 633.6,344.0 754.5,426.6" fill="#0dff8d" fill-opacity="0.09"></polygon><polygon points="755.7,291.2 657.5,196.4 793.2,187.8" fill="#2fff99" fill-opacity="0.09"></polygon><polygon points="554.1,141.6 657.5,196.4 515.2,256.1" fill="#00f280" fill-opacity="0.09"></polygon><polygon points="755.7,291.2 853.1,330.0 754.5,426.6" fill="#49ffa2" fill-opacity="0.09"></polygon><polygon points="513.5,392.7 420.5,344.0 515.2,256.1" fill="#00df75" fill-opacity="0.09"></polygon><polygon points="719.2,533.2 612.2,486.3 754.5,426.6" fill="#1bff92" fill-opacity="0.09"></polygon><polygon points="513.5,392.7 612.2,486.3 480.5,486.3" fill="#00ea7b" fill-opacity="0.09"></polygon><polygon points="755.7,291.2 793.2,187.8 853.1,330.0" fill="#50ffa4" fill-opacity="0.09"></polygon><polygon points="554.1,141.6 674.7,99.8 657.5,196.4" fill="#00fd87" fill-opacity="0.09"></polygon><polygon points="674.7,99.8 793.2,187.8 657.5,196.4" fill="#22ff94" fill-opacity="0.09"></polygon><polygon points="513.5,392.7 480.5,486.3 420.5,344.0" fill="#00dd74" fill-opacity="0.09"></polygon><polygon points="554.1,141.6 515.2,256.1 444.4,196.4" fill="#00e378" fill-opacity="0.09"></polygon><polygon points="754.5,426.6 853.1,330.0 831.7,472.2" fill="#56ffa6" fill-opacity="0.09"></polygon><polygon points="444.4,196.4 515.2,256.1 420.5,344.0" fill="#00da72" fill-opacity="0.09"></polygon><polygon points="719.2,533.2 754.5,426.6 831.7,472.2" fill="#40ff9f" fill-opacity="0.09"></polygon><polygon points="719.2,533.2 601.4,568.8 612.2,486.3" fill="#02ff89" fill-opacity="0.09"></polygon><polygon points="601.4,568.8 480.5,486.3 612.2,486.3" fill="#00f07f" fill-opacity="0.09"></polygon><polygon points="853.1,330.0 793.2,187.8 870.3,233.4" fill="#63ffab" fill-opacity="0.09"></polygon><polygon points="784.9,126.8 793.2,187.8 674.7,99.8" fill="#37ff9c" fill-opacity="0.09"></polygon><polygon points="554.1,141.6 543.0,99.8 674.7,99.8" fill="#00f582" fill-opacity="0.09"></polygon><polygon points="554.1,141.6 444.4,196.4 543.0,99.8" fill="#00e579" fill-opacity="0.09"></polygon><polygon points="480.5,486.3 409.7,426.6 420.5,344.0" fill="#00d670" fill-opacity="0.09"></polygon><polygon points="886.9,368.8 831.7,472.2 853.1,330.0" fill="#6cffae" fill-opacity="0.09"></polygon><polygon points="393.1,291.2 444.4,196.4 420.5,344.0" fill="#00d26e" fill-opacity="0.09"></polygon><polygon points="719.2,533.2 831.7,472.2 737.0,560.2" fill="#3dff9e" fill-opacity="0.09"></polygon><polygon points="719.2,533.2 737.0,560.2 601.4,568.8" fill="#17ff90" fill-opacity="0.09"></polygon><polygon points="784.9,126.8 870.3,233.4 793.2,187.8" fill="#57ffa7" fill-opacity="0.09"></polygon><polygon points="495.1,533.2 480.5,486.3 601.4,568.8" fill="#00e87a" fill-opacity="0.09"></polygon><polygon points="886.9,368.8 853.1,330.0 870.3,233.4" fill="#72ffb1" fill-opacity="0.09"></polygon><polygon points="393.1,291.2 420.5,344.0 409.7,426.6" fill="#00d06c" fill-opacity="0.09"></polygon><polygon points="495.1,533.2 409.7,426.6 480.5,486.3" fill="#00db73" fill-opacity="0.09"></polygon><polygon points="784.9,126.8 674.7,99.8 678.6,91.2" fill="#24ff95" fill-opacity="0.09"></polygon><polygon points="678.6,91.2 674.7,99.8 543.0,99.8" fill="#00fd87" fill-opacity="0.09"></polygon><polygon points="543.0,99.8 444.4,196.4 448.3,187.8" fill="#00de75" fill-opacity="0.09"></polygon><polygon points="393.1,291.2 448.3,187.8 444.4,196.4" fill="#00d46f" fill-opacity="0.09"></polygon><polygon points="886.9,368.8 835.6,463.6 831.7,472.2" fill="#69ffad" fill-opacity="0.20"></polygon><polygon points="831.7,472.2 835.6,463.6 737.0,560.2" fill="#50ffa4" fill-opacity="0.20"></polygon><polygon points="737.0,560.2 605.3,560.2 601.4,568.8" fill="#04ff89" fill-opacity="0.20"></polygon><polygon points="495.1,533.2 601.4,568.8 605.3,560.2" fill="#00f07f" fill-opacity="0.20"></polygon><polygon points="784.9,126.8 799.5,173.7 870.3,233.4" fill="#58ffa7" fill-opacity="0.20"></polygon><polygon points="886.9,368.8 870.3,233.4 859.5,316.0" fill="#73ffb1" fill-opacity="0.20"></polygon><polygon points="393.1,291.2 409.7,426.6 426.9,330.0" fill="#00d06c" fill-opacity="0.20"></polygon><polygon points="784.9,126.8 678.6,91.2 799.5,173.7" fill="#39ff9c" fill-opacity="0.20"></polygon><polygon points="495.1,533.2 486.8,472.2 409.7,426.6" fill="#00db73" fill-opacity="0.20"></polygon><polygon points="560.8,126.8 678.6,91.2 543.0,99.8" fill="#00f682" fill-opacity="0.20"></polygon><polygon points="560.8,126.8 543.0,99.8 448.3,187.8" fill="#00e679" fill-opacity="0.20"></polygon><polygon points="886.9,368.8 859.5,316.0 835.6,463.6" fill="#6dffaf" fill-opacity="0.20"></polygon><polygon points="393.1,291.2 426.9,330.0 448.3,187.8" fill="#00d36e" fill-opacity="0.20"></polygon><polygon points="799.5,173.7 859.5,316.0 870.3,233.4" fill="#65ffac" fill-opacity="0.20"></polygon><polygon points="725.9,518.4 737.0,560.2 835.6,463.6" fill="#3fff9e" fill-opacity="0.20"></polygon><polygon points="725.9,518.4 605.3,560.2 737.0,560.2" fill="#19ff91" fill-opacity="0.20"></polygon><polygon points="495.1,533.2 605.3,560.2 486.8,472.2" fill="#00e87b" fill-opacity="0.20"></polygon><polygon points="426.9,330.0 409.7,426.6 486.8,472.2" fill="#00d670" fill-opacity="0.20"></polygon><polygon points="667.8,173.7 799.5,173.7 678.6,91.2" fill="#25ff95" fill-opacity="0.20"></polygon><polygon points="560.8,126.8 667.8,173.7 678.6,91.2" fill="#00fe87" fill-opacity="0.20"></polygon><polygon points="560.8,126.8 448.3,187.8 525.5,233.4" fill="#00e579" fill-opacity="0.20"></polygon><polygon points="835.6,463.6 859.5,316.0 764.8,403.9" fill="#59ffa8" fill-opacity="0.20"></polygon><polygon points="448.3,187.8 426.9,330.0 525.5,233.4" fill="#00dc73" fill-opacity="0.20"></polygon><polygon points="725.9,518.4 835.6,463.6 764.8,403.9" fill="#43ffa0" fill-opacity="0.20"></polygon><polygon points="766.5,267.3 859.5,316.0 799.5,173.7" fill="#54ffa6" fill-opacity="0.20"></polygon><polygon points="605.3,560.2 622.5,463.6 486.8,472.2" fill="#00f180" fill-opacity="0.20"></polygon><polygon points="725.9,518.4 622.5,463.6 605.3,560.2" fill="#06ff8a" fill-opacity="0.20"></polygon><polygon points="524.3,368.8 426.9,330.0 486.8,472.2" fill="#00de75" fill-opacity="0.20"></polygon><polygon points="766.5,267.3 799.5,173.7 667.8,173.7" fill="#34ff9a" fill-opacity="0.20"></polygon><polygon points="560.8,126.8 525.5,233.4 667.8,173.7" fill="#00f481" fill-opacity="0.20"></polygon><polygon points="766.5,267.3 764.8,403.9 859.5,316.0" fill="#4effa4" fill-opacity="0.20"></polygon><polygon points="524.3,368.8 525.5,233.4 426.9,330.0" fill="#00e176" fill-opacity="0.20"></polygon><polygon points="725.9,518.4 764.8,403.9 622.5,463.6" fill="#20ff93" fill-opacity="0.20"></polygon><polygon points="524.3,368.8 486.8,472.2 622.5,463.6" fill="#00ec7d" fill-opacity="0.20"></polygon><polygon points="525.5,233.4 646.4,316.0 667.8,173.7" fill="#00fa85" fill-opacity="0.20"></polygon><polygon points="766.5,267.3 667.8,173.7 646.4,316.0" fill="#1bff91" fill-opacity="0.20"></polygon><polygon points="766.5,267.3 646.4,316.0 764.8,403.9" fill="#2bff97" fill-opacity="0.20"></polygon><polygon points="646.4,316.0 622.5,463.6 764.8,403.9" fill="#13ff8f" fill-opacity="0.20"></polygon><polygon points="524.3,368.8 646.4,316.0 525.5,233.4" fill="#00f07f" fill-opacity="0.20"></polygon><polygon points="524.3,368.8 622.5,463.6 646.4,316.0" fill="#00f683" fill-opacity="0.20"></polygon></g><g transform="translate(474.40 227.65) scale(0.92)"><path d="M287.4,170.4L287.7,171.9L288.1,172.9L289.7,177.2L292.0,181.5L296.4,186.9L296.5,188.3L296.8,190.2L298.9,193.6L299.9,195.4L301.3,197.8L302.8,200.9L303.2,205.3L303.5,208.8L303.4,210.2L303.1,209.6L302.4,210.8L302.3,212.1L302.7,212.7L302.4,213.6L303.5,211.4L302.7,214.0L301.3,216.5L301.4,216.0L301.8,214.7L301.5,214.5L300.2,214.8L299.1,215.0L297.8,215.7L296.4,215.1L296.6,214.1L295.7,212.8L295.1,212.0L294.4,211.5L293.4,210.6L291.9,210.2L290.6,208.8L289.7,206.5L288.4,205.4L287.8,205.9L287.0,204.3L287.7,204.4L287.5,202.5L287.5,201.9L286.8,202.4L286.4,203.7L286.0,203.2L284.3,200.9L282.4,198.7L282.1,198.0L282.8,197.4L283.6,196.1L284.1,195.1L283.5,195.3L282.9,194.4L281.8,194.3L282.3,194.7L282.5,196.2L281.8,196.8L281.7,197.0L281.0,195.7L280.5,193.6L280.5,193.0L280.7,192.6L281.1,191.7L281.1,190.8L281.3,189.1L280.7,188.1L280.7,186.6L279.8,185.3L279.6,184.7L278.0,185.0L277.5,184.1L276.7,183.5L275.7,182.8L274.8,181.5L274.0,180.8L273.2,180.0L272.4,179.2L269.8,178.0L268.0,178.2L267.7,179.7L267.0,180.0L265.6,180.7L264.0,181.5L263.2,182.0L262.7,182.7L264.6,182.0L264.8,182.0L262.9,183.1L261.6,182.5L260.3,182.2L260.3,181.8L261.0,182.2L259.9,180.4L258.5,179.7L256.1,178.4L252.5,177.6L248.8,178.1L246.2,178.7L242.6,179.8L242.0,179.8L242.5,179.0L241.5,177.8L241.4,176.3L240.5,176.8L240.3,177.7L239.8,179.3L238.9,179.0L238.2,179.2L237.3,179.3L236.4,179.2L235.3,179.3L233.3,179.4L232.0,179.6L231.6,179.8L230.9,181.1L229.9,181.5L229.2,182.1L228.3,182.5L228.6,183.3L229.1,183.8L230.0,183.6L230.6,182.3L231.5,182.1L231.1,182.8L232.0,183.2L232.6,183.2L232.5,183.5L232.0,184.3L231.9,184.4L231.3,185.5L230.5,185.0L230.5,185.6L229.6,185.7L229.5,185.9L229.5,186.4L230.4,186.9L230.7,187.5L231.2,187.7L232.3,187.7L233.8,188.7L234.5,189.0L234.0,189.6L234.0,189.8L233.2,190.6L232.2,191.2L232.2,190.8L232.5,189.9L232.4,189.2L231.6,189.7L230.0,188.6L227.0,189.7L225.7,190.3L225.5,189.8L224.6,189.0L224.5,188.9L223.5,188.9L223.0,189.1L222.8,189.7L222.4,190.5L221.6,191.2L220.9,190.5L219.5,190.1L218.1,189.7L218.1,188.7L218.9,189.0L219.1,188.9L218.2,188.1L217.7,188.2L217.7,187.8L216.4,187.3L215.3,186.6L214.6,185.7L213.5,185.6L213.9,185.0L212.9,185.0L211.9,185.9L211.2,186.0L211.7,186.5L212.6,186.9L211.6,187.2L208.3,187.3L205.2,186.1L203.0,186.0L200.1,186.3L198.2,186.8L193.2,189.1L193.2,188.9L194.0,188.4L194.7,188.1L192.7,188.0L193.2,186.2L192.3,186.2L191.6,187.1L190.9,187.3L191.1,188.3L191.8,188.9L191.6,190.2L190.3,191.1L189.8,191.6L191.0,191.0L192.3,190.0L192.5,190.2L190.1,192.0L187.9,193.8L183.8,196.0L180.9,197.7L178.5,199.5L176.1,202.2L174.1,205.6L173.5,208.6L174.0,212.3L175.0,216.7L174.4,214.0L174.0,212.6L173.4,210.8L173.3,208.2L174.6,203.9L175.5,202.5L176.3,201.3L177.7,199.7L179.3,198.6L180.4,197.8L180.0,197.7L178.7,198.3L178.1,197.5L177.8,198.5L177.3,199.4L176.2,199.6L174.8,200.2L176.2,200.5L174.7,202.3L173.9,201.8L172.6,202.1L173.6,202.2L174.0,203.2L173.6,205.7L172.5,206.8L172.7,206.1L171.5,206.9L173.0,207.0L173.1,207.8L172.7,210.7L173.2,213.4L174.1,215.2L174.0,216.2L174.7,217.0L174.5,217.8L173.5,218.0L172.6,218.3L171.8,217.9L170.2,216.8L168.9,216.9L168.4,217.0L167.3,216.7L166.6,216.5L166.2,215.9L164.9,215.5L163.4,215.0L162.7,214.2L161.5,213.8L160.6,213.8L160.3,212.7L159.8,211.6L159.5,210.5L158.9,209.5L158.5,208.9L158.0,208.2L158.2,207.3L157.8,206.2L157.8,205.3L157.6,204.6L157.2,203.7L156.6,203.2L155.6,202.5L155.1,202.0L155.0,201.2L154.3,200.3L153.7,199.1L152.5,198.3L151.8,196.8L151.9,196.0L151.5,195.3L150.8,194.6L150.6,193.8L150.2,192.6L149.9,191.7L149.0,190.3L148.3,189.3L147.4,188.6L146.4,187.6L145.8,186.8L145.4,186.8L144.9,186.0L144.2,185.0L143.5,185.0L141.9,184.8L140.6,184.5L139.4,184.5L138.3,183.8L136.8,184.5L135.7,184.8L135.4,185.3L134.8,185.9L134.4,186.7L134.1,187.8L133.6,188.6L133.2,189.3L132.2,189.9L131.5,190.8L130.3,190.4L128.4,189.0L127.2,188.1L125.4,187.5L124.2,186.3L123.4,185.6L122.2,184.5L121.7,183.0L121.3,181.6L121.3,180.3L121.0,179.2L120.6,178.3L120.2,176.5L119.5,175.5L118.5,174.8L117.8,174.4L116.9,173.5L115.3,171.5L114.4,171.0L113.4,169.6L112.5,168.8L111.2,167.3L110.7,165.8L109.7,165.3L97.4,167.6L84.8,165.8L68.9,159.8L53.1,150.4L53.4,149.4L43.8,147.5L37.4,145.6L36.9,145.0L37.2,143.8L37.0,141.2L35.7,138.6L34.8,137.5L33.6,136.2L32.5,135.4L31.4,135.0L31.3,134.4L31.1,132.7L29.4,131.9L28.0,131.5L26.5,130.2L25.8,128.6L24.9,127.7L23.6,127.4L21.9,126.4L20.0,125.8L18.6,124.9L17.9,124.3L18.8,122.1L19.2,119.9L18.4,119.4L18.2,117.6L17.5,116.5L16.3,114.5L15.8,112.9L15.5,111.5L14.9,110.1L13.7,108.2L13.7,106.6L14.1,105.3L15.0,105.2L15.1,102.7L13.8,102.4L12.7,100.7L12.5,99.5L12.8,97.6L12.6,96.7L13.1,95.0L13.9,95.2L13.7,96.7L14.6,97.9L15.3,98.5L14.9,97.3L14.7,95.7L14.6,94.4L14.2,93.8L15.0,93.6L14.7,92.3L14.0,92.7L13.7,93.6L13.6,94.4L13.1,94.7L12.2,93.8L11.4,92.4L11.1,91.5L11.3,90.4L11.0,89.4L10.2,87.8L9.1,85.5L8.3,83.3L8.7,81.6L9.0,79.2L9.7,77.6L9.4,75.7L8.8,74.0L8.4,73.0L7.9,70.7L8.7,68.9L11.0,66.0L11.1,65.0L12.5,61.8L12.3,60.1L12.8,58.5L12.3,57.0L12.3,55.6L12.6,54.0L13.1,51.6L13.4,50.1L14.3,48.6L14.9,47.2L16.3,45.8L18.5,41.3L19.6,38.6L20.4,36.3L21.5,34.0L22.3,31.7L22.8,30.3L23.3,28.3L23.7,26.8L24.4,24.5L25.0,25.1L25.8,25.3L26.9,25.0L26.0,24.4L25.1,24.6L24.5,23.8L24.4,23.2L25.1,21.7L25.0,23.4L25.1,22.4L25.5,21.3L26.2,20.6L25.7,20.8L25.2,19.9L25.4,19.3L26.7,18.8L25.6,17.9L25.0,18.7L25.6,15.7L25.6,13.0L25.5,11.1L25.0,10.3L25.2,8.4L25.9,6.8L26.1,6.3L27.4,7.6L28.6,8.6L30.2,9.6L31.3,10.0L32.1,10.5L33.6,10.6L34.3,11.3L34.8,11.9L35.0,12.0L35.2,11.3L35.3,11.7L35.6,11.8L35.5,12.4L35.9,13.6L35.3,13.9L34.2,14.8L34.0,14.5L32.2,16.2L32.3,17.2L33.2,16.8L33.2,15.4L34.8,14.6L36.0,13.2L35.8,14.8L35.8,15.6L35.5,16.3L35.3,17.0L34.8,18.1L34.0,18.2L33.7,18.2L33.8,19.3L33.1,18.2L33.5,17.4L33.0,18.6L33.2,19.4L34.0,19.3L34.9,18.5L35.6,18.7L36.3,18.0L36.3,17.2L36.7,16.2L36.8,14.6L38.1,13.5L37.7,12.1L37.5,11.1L37.3,11.9L37.2,11.9L37.1,10.8L38.0,10.8L37.3,9.5L36.7,9.1L36.7,8.6L37.6,9.1L38.3,8.4L38.2,7.2L37.9,6.6L37.4,6.8L37.4,6.3L37.4,5.2L37.6,4.5L45.7,6.8L55.4,9.3L68.3,12.4L78.2,14.5L90.1,16.8L105.6,19.4L120.6,21.4L133.7,22.9L143.0,23.7L155.4,24.5L165.1,24.9L177.0,25.2L188.4,25.2L189.5,22.2L190.5,24.2L190.9,26.6L191.9,27.6L193.4,27.6L195.8,28.2L196.1,29.1L197.4,28.9L198.5,28.1L200.5,28.1L202.6,29.0L202.4,29.6L203.5,30.1L204.6,31.1L205.0,30.2L206.1,30.8L206.9,31.3L207.8,32.0L208.7,32.5L209.8,32.3L211.7,31.2L212.7,30.8L212.9,31.5L214.2,31.6L215.3,31.8L217.3,31.7L218.5,32.2L219.6,32.2L219.8,32.6L219.2,32.8L217.7,33.8L215.4,34.7L213.5,35.8L211.1,38.3L209.0,40.4L207.7,41.8L206.1,43.1L207.0,43.9L209.1,43.2L210.9,42.4L211.5,42.1L212.8,41.6L213.8,41.9L213.3,43.5L213.0,44.4L214.9,44.2L215.8,44.4L217.2,43.7L219.0,42.3L220.3,42.0L222.3,41.2L223.9,40.2L224.7,39.0L226.0,38.1L226.9,36.9L230.2,35.8L230.5,36.4L229.4,36.6L228.3,38.1L227.7,38.8L227.3,39.9L226.7,41.5L226.9,42.1L227.5,41.2L228.4,40.6L228.4,40.7L230.0,40.5L230.9,40.9L231.8,41.4L232.5,42.5L233.2,43.5L234.9,43.6L235.9,43.7L236.7,43.5L237.3,43.3L237.6,43.0L238.3,43.0L240.5,41.7L243.4,41.2L245.7,40.2L246.6,40.7L246.6,42.1L247.3,42.3L248.1,42.6L249.3,42.4L249.9,42.5L251.0,41.8L251.9,41.4L252.1,43.2L251.5,44.4L252.2,44.3L252.6,44.9L253.9,45.7L254.5,45.4L255.2,44.6L256.2,45.4L255.2,45.9L253.6,46.0L251.3,46.3L249.9,45.8L249.1,46.0L249.0,47.0L248.5,47.3L247.8,46.7L246.2,46.2L244.8,45.8L243.9,46.5L242.7,47.1L242.2,47.6L240.7,47.5L239.8,48.0L239.4,49.0L238.8,49.8L238.3,50.2L237.7,50.2L238.2,49.5L238.7,48.6L238.0,48.8L237.1,49.4L236.3,50.3L236.1,49.2L235.7,50.0L234.7,51.5L233.7,53.9L232.9,55.9L231.8,56.9L231.5,57.8L231.0,59.5L231.3,60.3L232.2,59.4L232.6,58.6L234.0,57.3L234.3,56.9L235.1,54.6L235.8,54.0L236.6,54.1L236.1,55.5L235.6,56.3L235.5,57.1L234.8,58.4L234.2,59.9L234.2,63.0L233.5,64.1L233.2,66.2L233.1,68.2L232.6,71.1L232.9,72.5L233.2,73.9L233.7,75.4L233.8,78.1L234.5,80.4L235.3,82.0L236.0,83.3L236.6,83.7L237.3,84.2L239.6,83.3L241.4,81.6L243.0,77.5L243.2,75.1L242.8,72.0L241.3,68.9L240.5,66.8L240.9,65.1L240.3,63.3L241.5,60.9L241.3,58.3L242.2,57.5L242.4,56.0L243.3,55.7L243.9,54.7L244.6,53.5L245.1,53.6L245.0,54.7L244.9,55.7L244.9,57.0L245.3,55.2L245.3,56.5L245.6,56.6L246.1,54.9L245.9,53.4L246.5,52.2L247.7,51.7L248.4,51.1L247.1,50.0L248.0,48.7L248.8,48.3L250.8,48.9L251.6,48.7L253.0,49.8L254.2,49.9L256.1,50.7L257.5,51.3L258.0,52.3L257.6,52.9L257.8,54.3L258.6,55.5L258.6,56.8L258.8,58.9L257.8,59.6L257.7,61.5L257.1,62.1L255.9,63.1L256.1,64.9L256.8,65.1L257.8,65.3L258.7,64.1L258.7,62.8L259.3,62.6L259.6,62.2L260.8,61.5L261.8,61.0L263.2,62.2L264.0,64.5L265.3,68.5L265.7,69.9L265.6,72.1L265.0,73.2L264.5,72.9L264.6,72.1L263.8,72.7L263.8,73.2L263.6,74.8L262.4,76.2L262.2,77.7L261.9,78.8L261.3,79.5L261.0,80.7L261.8,80.8L263.5,81.5L264.8,81.8L265.3,81.7L266.5,82.5L268.2,82.2L270.1,81.2L271.8,81.2L273.0,79.9L274.4,78.5L276.9,76.9L279.5,75.4L280.7,74.0L281.8,73.5L284.4,71.3L286.0,69.8L286.4,68.6L287.3,67.0L286.7,66.2L285.7,65.4L285.4,63.9L287.9,62.6L290.2,62.1L293.4,61.9L294.6,62.4L297.0,61.4L298.2,61.1L299.4,60.5L300.4,59.1L301.4,58.6L301.8,57.4L301.0,55.5L301.8,55.2L300.7,54.9L300.1,54.4L300.5,52.9L301.2,51.9L302.2,51.1L302.8,49.7L304.9,46.6L306.5,44.9L307.9,44.5L311.2,43.8L315.8,42.5L320.4,41.4L326.3,39.8L326.4,38.7L326.5,37.8L327.3,37.5L328.4,36.6L329.0,36.8L329.6,36.5L329.5,35.4L330.4,35.5L329.6,34.6L330.2,33.1L331.0,32.3L331.4,30.9L330.9,30.4L330.7,29.6L330.6,28.6L330.7,27.3L331.3,26.3L333.8,16.7L334.7,17.1L336.0,18.4L337.4,17.5L338.6,16.7L339.2,16.0L340.6,16.5L342.3,17.5L345.1,26.4L345.5,27.3L346.1,28.6L346.9,28.8L348.1,28.9L347.7,29.6L348.5,30.9L349.1,32.0L349.7,31.6L350.9,31.9L351.2,32.5L352.3,34.1L352.0,34.8L351.3,36.2L350.8,35.5L350.5,36.5L349.8,36.9L350.2,37.5L349.2,37.4L348.8,37.9L348.4,38.1L348.2,39.0L347.6,39.0L347.0,39.3L346.8,40.0L346.2,41.1L345.2,40.1L345.1,39.8L345.0,40.1L344.4,40.2L345.0,41.1L344.9,42.1L345.1,43.2L344.7,42.8L343.9,41.8L343.7,41.0L342.9,40.4L342.8,39.7L342.2,40.2L342.3,41.1L342.1,42.2L342.5,43.4L342.5,44.4L341.5,45.2L341.2,45.3L341.1,45.2L340.5,45.1L340.3,46.2L339.8,46.5L339.2,46.6L338.6,47.8L337.8,47.7L337.3,48.5L336.8,49.3L336.5,49.6L336.3,50.8L336.1,51.5L335.4,52.0L335.4,53.5L335.1,54.4L335.0,56.6L336.3,57.3L336.0,58.3L335.3,59.5L335.0,59.7L335.0,60.6L335.1,61.1L335.7,60.7L336.9,61.3L337.7,62.5L337.5,63.0L338.5,63.3L339.2,64.4L340.7,64.5L342.0,63.6L341.6,62.4L341.0,61.7L340.4,61.9L340.8,61.4L342.5,63.2L342.7,65.5L342.4,64.5L340.4,65.3L339.7,66.2L338.2,67.6L337.4,67.9L338.8,66.6L338.6,65.1L337.9,65.5L337.7,66.1L337.1,67.0L336.3,67.5L335.4,67.4L335.4,68.0L334.9,68.4L335.0,66.8L335.0,66.5L334.6,66.3L334.2,66.7L334.2,67.4L334.4,68.4L333.9,69.3L332.1,70.4L331.5,70.3L330.4,70.9L329.0,71.6L328.0,71.9L327.2,72.2L325.8,72.1L325.1,73.0L324.0,74.1L323.5,74.5L322.3,75.5L321.8,76.1L321.2,77.1L322.0,76.8L322.9,76.1L323.5,75.6L324.6,75.8L325.4,75.0L328.1,74.2L329.0,73.1L329.8,72.3L329.6,72.8L330.6,73.2L331.5,73.1L332.3,72.3L331.2,73.5L327.2,76.6L324.7,78.2L321.9,79.1L320.5,79.6L320.3,78.9L320.2,79.4L319.1,80.6L320.0,80.7L320.9,80.6L321.3,83.3L321.1,88.3L320.8,89.0L320.4,90.1L318.9,92.5L317.9,94.4L317.8,93.0L316.8,92.4L316.2,92.6L315.4,92.0L314.6,91.5L313.6,91.0L312.8,89.7L312.8,89.0L312.8,90.1L312.8,90.9L314.1,92.0L314.5,93.1L315.4,94.5L316.9,95.9L317.6,96.8L318.1,99.6L317.6,102.2L317.1,103.9L316.3,104.5L316.2,106.5L315.7,108.3L315.5,109.4L314.7,110.7L314.5,110.4L313.9,109.2L314.0,107.3L314.5,105.2L315.1,104.2L315.1,103.5L313.9,104.0L313.6,103.1L313.5,102.5L313.0,102.5L313.5,101.6L312.9,101.2L312.7,101.0L312.2,101.0L312.2,100.4L312.2,101.2L311.6,101.8L310.7,101.2L310.3,99.7L309.9,99.2L310.4,98.8L311.3,98.8L311.2,98.5L310.4,98.3L309.6,97.9L309.4,97.6L310.2,97.0L309.4,96.5L309.0,97.0L309.4,95.8L309.9,95.2L309.7,95.2L309.5,94.9L309.3,93.4L309.7,92.7L310.2,92.2L310.3,90.7L309.8,91.5L309.1,92.7L308.7,91.9L308.9,92.8L308.2,92.5L308.2,93.5L308.0,94.3L307.0,93.9L307.5,94.5L308.2,95.4L308.4,96.4L308.1,97.1L308.3,98.3L308.6,99.8L309.8,101.1L309.6,101.7L309.9,101.9L310.5,103.0L310.2,103.2L309.6,102.9L309.3,103.1L308.2,102.5L306.8,101.7L307.1,102.5L306.1,101.9L304.6,102.1L304.1,100.6L304.6,99.8L303.9,100.3L303.8,102.1L305.0,102.0L305.8,101.8L306.4,103.0L308.0,103.3L308.8,103.4L309.8,104.0L311.6,104.8L311.3,106.2L311.6,106.9L310.2,107.2L309.5,106.2L308.5,105.8L307.5,104.9L307.9,105.4L309.0,106.4L310.0,107.4L311.7,107.5L311.8,108.1L312.4,108.9L311.2,109.0L311.7,109.9L311.0,110.4L311.8,111.0L312.5,111.1L312.5,112.1L311.6,112.1L310.4,111.2L309.4,111.2L308.5,110.8L308.7,111.2L309.7,111.5L310.3,112.3L311.7,113.3L312.5,113.1L312.9,112.4L314.5,112.4L315.7,114.2L316.4,115.7L318.6,119.3L318.9,120.1L317.7,118.4L316.9,117.0L316.2,115.9L315.2,115.8L316.1,116.4L317.1,118.1L317.5,119.1L316.6,118.1L316.3,118.1L315.9,118.5L315.2,118.4L315.5,119.0L314.7,119.2L314.0,119.3L313.1,119.1L314.1,119.7L313.0,120.6L311.9,120.5L311.5,118.7L311.2,119.8L311.8,121.2L313.8,120.6L314.6,120.6L316.4,120.3L316.4,121.6L316.9,121.9L316.8,120.2L318.2,120.6L318.8,122.1L318.6,123.1L317.8,123.3L317.5,124.1L317.0,124.9L316.6,125.7L314.6,125.8L313.8,125.6L314.1,124.3L313.1,124.9L313.5,125.8L311.9,125.7L310.5,125.6L313.1,126.3L314.6,126.7L314.3,127.8L312.9,129.6L312.3,129.8L314.3,129.1L315.1,128.3L316.0,128.9L316.3,129.1L315.7,130.1L315.2,131.5L314.4,130.8L315.3,131.8L316.7,129.1L317.2,128.5L315.9,130.5L315.3,132.3L313.2,131.8L310.8,133.1L308.8,135.1L307.3,137.6L306.9,139.8L306.5,140.1L304.7,140.2L303.0,141.0L301.4,142.3L300.2,144.3L299.6,146.8L299.3,147.9L298.3,149.0L297.2,149.3L297.3,149.9L296.7,150.7L295.4,151.5L295.6,151.9L294.9,153.1L293.7,153.9L292.6,154.4L291.8,154.5L292.1,155.9L290.9,156.4L290.1,156.7L290.5,157.6L289.4,158.7L289.8,159.3L289.1,159.9L288.5,160.3L288.6,161.2L287.8,161.8L288.4,162.5L287.6,163.4L287.8,164.5L287.8,165.4L287.4,166.8L287.1,167.9L287.0,168.4L287.2,169.9L287.4,170.4Z" fill="#00ff88" fill-opacity="0.10" stroke="#00ff88" stroke-width="1.6" stroke-linejoin="round" vector-effect="non-scaling-stroke"></path><path d="M54.1,148.7L55.5,148.4L55.6,146.3L54.8,145.7L55.3,143.5L56.8,142.1L57.3,140.4L57.5,139.2L58.5,137.7L59.9,137.1L60.1,135.8L59.1,132.6L58.5,130.0L59.2,128.5L59.0,125.9L59.3,124.3L59.4,122.9L59.5,121.5L60.4,120.8L61.8,120.9L62.7,122.2L64.6,119.3L75.3,116.1L88.8,118.3L96.1,133.5L94.5,145.7L91.5,166.8M254.0,138.7L256.8,148.8L259.0,156.5L260.4,158.7L261.1,160.5L261.0,161.4L260.6,163.0L260.4,165.4L261.0,167.6L260.8,169.2L261.8,171.0L262.6,172.9L273.3,173.0L282.1,172.9L283.6,173.8L283.2,171.5L283.2,170.4L284.3,170.2L286.2,170.4L287.4,170.4M238.3,179.0L236.7,166.3L237.0,149.5L236.9,140.8L241.6,139.7L252.5,138.8L262.6,137.6L270.7,137.0L269.4,138.9L271.4,140.5L273.2,141.1L274.1,142.4L274.9,143.8L276.5,145.2L278.5,146.7L279.6,147.4L280.6,148.6L281.3,149.8L282.2,150.6L284.1,151.4L284.8,152.7L285.1,153.9L286.2,155.0L287.3,156.6L287.8,157.8L288.7,158.4L289.6,158.8M240.3,82.8L252.7,81.5L254.4,96.8L254.8,104.0L255.1,105.2L255.4,105.9L254.5,106.5L252.8,107.0L251.7,108.3L250.8,109.8L249.5,111.3L249.1,113.5L248.0,113.7L246.3,112.3L246.4,112.8L245.6,113.2L245.3,114.4L244.7,115.5L244.1,115.1L242.9,114.8L241.8,116.2L240.3,115.4L238.7,115.3L238.5,115.9L237.9,115.6L236.2,115.8L235.4,116.7L235.7,115.9L235.4,114.6L236.1,113.7L236.0,112.4L236.7,111.8L237.6,110.5L238.2,109.0L238.2,106.7L237.2,105.0L237.5,103.5L237.3,98.0L236.2,85.5L236.0,83.6M145.5,99.1L165.8,100.0L185.1,100.3L188.8,101.1L190.0,101.1L190.9,101.7L190.9,102.2L190.3,103.0L189.4,103.9L190.2,104.9L190.7,105.7L191.6,106.9L192.3,107.3L192.7,111.7L192.8,123.5L178.3,125.6L159.7,125.1L144.0,124.4L144.0,124.4M335.1,54.4L333.1,52.5L332.6,50.8L329.8,42.0L328.0,36.8M335.0,66.1L333.9,64.8L330.9,64.5L325.2,66.1L321.1,66.7L320.7,60.8L332.6,57.9L333.6,57.0L334.9,56.1L334.9,56.1M336.1,67.7L335.7,66.4L335.3,66.4M206.6,43.7L205.5,43.8L205.2,49.0L204.2,49.9L202.8,50.6L201.9,53.3L202.9,53.8L203.1,55.3L202.9,57.2L202.9,58.6L202.7,60.3L204.0,61.3L205.8,62.3L208.0,63.5L208.7,64.8L211.0,66.1L212.1,68.8L212.5,70.2L196.0,70.8L181.1,62.2L180.9,55.4L179.3,54.0L179.9,52.3L180.4,49.8L180.0,47.1L179.2,44.8L179.3,43.1L179.1,40.8L178.9,38.2L178.5,35.4L177.8,33.9L177.5,31.1L177.3,28.9L177.4,27.2L177.0,25.2L177.0,25.2M312.9,89.0L313.6,87.5L315.1,86.0L316.4,84.4L316.0,83.4L314.4,82.4L313.5,81.3L313.0,80.3L312.9,77.9L313.6,76.6L314.5,74.3L320.4,76.1L320.1,78.7L320.1,78.7M320.0,79.0L319.1,80.6L319.1,80.6M312.8,89.7L312.7,89.5M262.6,137.6L263.8,135.3L264.2,133.9L265.4,132.7L268.3,131.4L269.0,130.5L270.6,129.9L271.6,128.5L272.9,127.9L274.5,126.5L275.8,126.0L277.2,124.5L278.5,124.0L278.2,122.3L283.9,121.3L292.6,120.0L309.5,116.7L316.3,115.3L316.3,115.3M303.0,141.0L294.0,134.5L286.4,134.7L284.5,133.6L276.0,134.0L274.9,134.4L273.0,135.6L270.7,136.5M180.5,50.6L164.5,50.2L149.0,49.4L138.9,28.5L139.3,23.4M192.9,125.5L193.4,133.0L194.3,141.3L194.2,149.1L193.1,153.5L191.8,152.9L190.3,151.9L188.6,151.8L186.9,151.8L185.4,151.7L184.2,151.7L183.1,152.2L181.7,152.8L180.8,152.6L179.4,152.1L178.5,152.2L177.7,151.9L176.9,151.2L176.6,152.3L175.8,153.0L175.5,151.4L174.6,151.8L173.8,151.5L172.9,151.1L171.2,151.9L170.4,151.2L169.9,150.7L169.3,149.3L167.6,149.3L166.2,149.3L164.5,149.2L162.9,148.8L161.9,148.6L161.1,147.0L159.8,146.9L157.9,146.5L154.3,129.1L137.3,128.1L137.7,123.9M282.7,72.8L290.2,73.8L303.7,71.1L310.2,70.1L311.7,71.1L312.1,72.6L313.5,73.6L314.5,73.6L314.9,74.2M313.3,87.9L311.5,88.4L300.3,91.3L281.6,94.7L278.5,76.0M181.0,70.9L180.6,71.8L180.4,73.2L181.0,74.6L180.7,75.5L180.2,76.9L180.6,78.2L180.7,79.4L179.4,78.4L178.9,77.6L176.9,77.0L175.8,76.2L174.6,76.2L173.0,76.3L171.9,76.9L168.8,75.4L158.8,74.6L144.5,73.8L135.2,70.5L137.0,50.2L137.1,48.6M194.2,153.7L194.9,154.2L195.4,154.4L196.6,154.2L197.2,154.4L197.7,167.6L199.1,169.3L199.2,170.5L199.8,171.4L200.0,172.3L200.5,173.5L201.2,174.9L201.1,175.9L201.2,177.2L200.4,178.6L200.1,179.7L200.2,181.7L200.1,183.4L199.5,184.7L199.0,186.0L199.4,186.7M109.7,165.3L109.0,164.5L117.6,164.3L134.8,157.0L135.5,149.4L137.1,128.0L137.3,128.1M135.0,73.1L133.6,89.8M102.6,86.3L120.2,88.5L133.6,89.8L145.5,99.1L144.5,115.5L139.1,124.0L124.5,122.8L112.2,121.5L98.6,115.5L99.9,105.3L102.6,86.3L92.4,84.9L91.6,76.2L93.9,62.3L95.1,54.5L97.6,51.8L101.0,52.2L111.8,53.8L125.4,55.4L136.4,56.4L136.4,56.4M330.9,64.6L332.2,69.4L332.0,70.3M321.9,75.7L321.9,73.0L320.8,66.8M188.1,100.3L187.0,98.2L185.9,96.9L185.9,95.8L185.2,95.4L199.0,95.3L210.5,94.6L211.2,95.4L212.2,96.4L212.1,98.2L212.6,100.7L213.1,101.9L214.6,103.4L217.0,105.2L217.6,107.3L218.8,108.8L220.3,108.3L221.3,109.5L220.8,111.6L220.2,113.8L221.9,115.4L223.1,116.1L223.6,116.9L224.5,117.1L225.6,118.1L226.1,119.3L226.4,121.3L227.1,123.0L228.2,123.9L228.8,124.2L229.0,125.2L229.2,126.0L228.8,127.0L227.6,127.2L226.9,128.3L226.3,127.9L226.9,129.4L226.7,130.2L225.6,130.6L225.9,132.4L222.2,131.6L222.9,130.5L222.7,129.1L203.2,129.5L192.9,129.7M288.2,93.6L289.9,96.9L291.2,95.2L293.0,93.6L293.6,94.2L295.0,93.8L295.2,93.3L296.8,92.4L298.3,92.7L298.7,93.5L299.6,94.3L299.4,96.5L295.8,95.0L295.6,96.3L295.3,97.5L294.6,98.7L293.7,99.8L292.1,101.4L291.6,103.5L288.7,103.1L288.1,105.7L287.5,107.3L287.3,108.5L286.1,111.0L286.2,112.1L286.1,112.8L284.1,113.8L282.5,114.5L281.1,115.6L279.3,115.5L278.3,116.6L276.7,116.2L275.6,115.1L275.3,114.3L274.0,114.0L273.0,113.5L271.9,111.8L271.1,110.9L270.2,109.6L270.5,108.8L270.6,107.6L271.9,105.9L272.4,104.8L272.7,102.4L273.6,102.1L274.3,102.9L274.7,101.7L274.6,100.4L275.6,99.5L276.7,98.7L277.9,97.7L279.2,96.0L279.4,94.7L279.6,93.3L279.8,92.0L280.1,90.5L280.1,88.6L280.0,87.3L280.4,87.1M212.6,96.4L212.6,95.1L214.3,93.9L214.7,92.4L215.2,90.3L214.3,88.6L215.2,87.5L217.2,86.7L218.7,85.9L219.0,84.4L219.6,82.8L219.3,81.2L217.5,79.3L216.4,78.3L227.8,77.7L233.8,77.2M235.7,116.7L235.2,118.6L234.2,119.8L233.0,120.8L233.5,122.3L232.2,122.7L229.8,121.9L228.7,123.3L229.0,124.1M225.6,132.6L225.6,133.4L225.4,134.3L224.2,135.0L225.0,135.7L224.6,136.8L224.0,137.2L222.9,138.0L223.4,138.3L223.6,139.0L223.6,140.2L222.3,140.9L222.3,142.3L221.1,142.5L221.1,143.6L220.8,143.4L221.4,144.0L220.5,144.1L220.6,145.6L220.0,147.1L219.7,147.2L218.6,147.8L219.3,148.5L218.5,149.1L218.1,149.7L217.5,150.0L217.8,151.4L217.2,151.8L217.9,152.6L216.7,152.5L216.6,153.6L217.1,154.2L216.8,155.0L217.9,154.7L217.7,156.0L217.8,157.0L217.0,157.4L208.0,158.6L197.4,158.9M12.8,58.0L19.1,59.8L25.0,61.5L35.8,64.5L35.1,75.4L32.1,86.7L33.9,93.1L40.9,103.7L54.4,123.9L58.5,130.0M318.1,98.5L311.3,89.7L311.1,89.1M212.5,70.2L213.3,71.7L212.9,73.3L213.5,75.3L216.0,77.3L216.4,78.3M185.2,95.4L184.5,94.3L184.9,92.8L184.7,91.7L184.8,90.5L184.5,89.3L183.7,87.9L183.2,87.4L183.0,86.2L183.4,85.2L182.9,84.2L182.3,83.4L181.6,82.1L181.2,80.6L181.0,79.4L181.0,79.4M255.2,103.6L256.6,103.7L257.6,103.3L259.2,105.0L261.1,105.6L262.4,106.6L264.3,106.1L265.6,106.4L267.1,105.3L268.0,105.5L269.7,107.0L270.1,107.5M275.3,114.3L271.4,118.1L270.3,119.5L269.5,120.9L268.2,122.1L265.4,123.4L261.3,124.2L254.6,124.7L247.7,125.3L242.5,125.8L236.2,126.1L230.2,128.0L227.4,128.3M226.9,128.3L226.6,128.3M313.0,103.9L312.6,104.0M317.6,102.2L315.2,103.0L315.2,103.5L315.1,103.5M304.6,99.8L304.9,98.4L304.9,98.4M304.2,97.3L304.8,97.7L303.3,97.0L301.6,96.3L301.6,95.3L300.1,94.8L299.8,94.8M261.0,80.7L259.1,81.0L255.4,81.6L252.7,82.0M261.9,171.4L251.2,172.6L243.4,174.4L245.1,175.9L245.6,177.8L245.0,179.0L244.6,179.2M233.1,55.4L232.2,54.7L232.3,53.0L231.2,53.2L231.6,52.2L231.6,50.7L230.5,50.1L229.7,49.3L228.4,48.7L227.1,48.2L226.1,48.3L217.6,46.2L216.2,44.6L215.8,44.4M222.3,141.3L227.8,140.9L231.6,140.6L236.5,140.3M230.3,181.2L229.5,179.9L228.4,178.6L227.7,177.3L228.1,175.3L228.2,174.4L215.1,175.0L215.1,173.7L215.2,173.0L215.3,172.0L215.6,172.1L215.4,170.8L215.7,170.3L216.3,169.9L217.2,168.7L217.0,168.2L217.7,167.4L218.2,166.3L218.3,166.0L218.5,165.6L218.5,164.6L219.3,164.2L218.8,163.7L218.5,163.0L218.5,162.6L218.4,161.8L217.8,161.8L218.2,160.8L217.5,159.6L217.5,158.5L217.1,158.7L217.3,158.3M94.9,55.8L94.1,54.4L92.7,53.4L91.9,54.5L90.4,54.7L89.2,54.2L88.1,53.9L87.3,54.4L86.2,54.2L84.4,54.4L83.7,54.3L83.2,52.7L82.6,50.7L81.3,49.4L81.4,48.2L80.7,46.7L80.5,45.3L80.3,44.3L80.1,43.2L79.4,43.0L77.9,43.7L76.9,43.8L76.2,42.6L77.0,40.9L77.7,40.0L77.3,38.6L77.8,37.5L78.6,35.7L79.1,34.4L77.6,34.3L77.3,33.4L76.9,33.2L75.9,31.2L75.1,29.6L74.7,28.8L73.5,27.5L73.2,26.5L72.8,25.7L73.2,24.5L72.7,23.3L72.4,19.1L73.6,13.6M325.5,59.8L324.8,58.4L324.8,57.1L324.7,54.9L324.3,52.8L324.9,50.9L324.9,49.0L324.8,47.3L325.4,45.8L326.4,45.0L326.7,43.7L326.2,42.2L326.1,40.1L326.3,39.8M315.8,42.5L316.3,44.3L316.5,46.1L317.4,48.4L317.2,50.5L317.9,52.2L318.3,54.3L319.2,54.2L320.5,60.4L320.7,60.8M26.9,25.0L27.6,26.2L30.1,27.5L30.2,29.4L29.9,31.1L31.8,32.4L33.4,32.8L35.7,32.5L37.6,33.0L38.9,34.1L40.6,34.0L42.8,34.4L44.7,34.3L47.7,34.2L50.2,34.2L51.8,34.0L63.6,37.6L64.5,38.9L65.3,40.2L64.4,41.7L63.0,44.0L62.0,45.2L61.2,46.6L59.4,48.5L58.9,50.0L59.5,51.0L60.2,51.8L59.8,52.9L59.0,54.1L46.1,67.1L37.8,65.0M265.2,123.6L271.6,122.8L278.5,121.7L278.3,121.9M65.5,114.3L67.3,104.8L70.7,87.6L74.8,73.4L89.1,75.8L91.6,76.2M68.3,12.4L65.6,24.3L63.6,34.3L63.3,36.0L63.5,36.8M73.5,73.1L67.5,71.9L55.5,69.3" fill="none" stroke="#00cc6a" stroke-width="0.7" stroke-opacity="0.45" vector-effect="non-scaling-stroke"></path></g><g stroke="#00cc6a" stroke-width="1" fill="none"><circle cx="561.8" cy="281.0" r="4"></circle><line x1="564.8" y1="284.0" x2="568.8" y2="288.0"></line></g><g fill="#00cc6a"><rect x="704.4" y="275.5" width="3" height="8"></rect><rect x="708.4" y="271.5" width="3" height="12"></rect><rect x="712.4" y="267.5" width="3" height="16"></rect></g><g transform="translate(511.2 281.0) scale(0.95)"><path d="M0,-10 C5,-10 8,-6 8,-2 C8,4 0,12 0,12 C0,12 -8,4 -8,-2 C-8,-6 -5,-10 0,-10 Z" fill="#00ff88" stroke="#0a0a0a" stroke-width="0.8"></path><circle cx="0" cy="-2" r="3" fill="#0a0a0a"></circle></g><g transform="translate(507.5 336.2) scale(1.05)"><path d="M0,-10 C5,-10 8,-6 8,-2 C8,4 0,12 0,12 C0,12 -8,4 -8,-2 C-8,-6 -5,-10 0,-10 Z" fill="#f59e0b" stroke="#0a0a0a" stroke-width="0.8"></path><circle cx="0" cy="-2" r="3" fill="#0a0a0a"></circle></g><g transform="translate(577.4 312.3) scale(0.9)"><path d="M0,-10 C5,-10 8,-6 8,-2 C8,4 0,12 0,12 C0,12 -8,4 -8,-2 C-8,-6 -5,-10 0,-10 Z" fill="#00ff88" stroke="#0a0a0a" stroke-width="0.8"></path><circle cx="0" cy="-2" r="3" fill="#0a0a0a"></circle></g><g transform="translate(630.8 319.6) scale(1.1)"><path d="M0,-10 C5,-10 8,-6 8,-2 C8,4 0,12 0,12 C0,12 -8,4 -8,-2 C-8,-6 -5,-10 0,-10 Z" fill="#ef4444" stroke="#0a0a0a" stroke-width="0.8"></path><circle cx="0" cy="-2" r="3" fill="#0a0a0a"></circle></g><g transform="translate(645.5 365.6) scale(1)"><path d="M0,-10 C5,-10 8,-6 8,-2 C8,4 0,12 0,12 C0,12 -8,4 -8,-2 C-8,-6 -5,-10 0,-10 Z" fill="#f59e0b" stroke="#0a0a0a" stroke-width="0.8"></path><circle cx="0" cy="-2" r="3" fill="#0a0a0a"></circle></g><g transform="translate(750.4 339.9) scale(0.9)"><path d="M0,-10 C5,-10 8,-6 8,-2 C8,4 0,12 0,12 C0,12 -8,4 -8,-2 C-8,-6 -5,-10 0,-10 Z" fill="#00ff88" stroke="#0a0a0a" stroke-width="0.8"></path><circle cx="0" cy="-2" r="3" fill="#0a0a0a"></circle></g><g transform="translate(770.6 284.7) scale(0.85)"><path d="M0,-10 C5,-10 8,-6 8,-2 C8,4 0,12 0,12 C0,12 -8,4 -8,-2 C-8,-6 -5,-10 0,-10 Z" fill="#ef4444" stroke="#0a0a0a" stroke-width="0.8"></path><circle cx="0" cy="-2" r="3" fill="#0a0a0a"></circle></g><g transform="translate(687.8 293.9) scale(0.85)"><path d="M0,-10 C5,-10 8,-6 8,-2 C8,4 0,12 0,12 C0,12 -8,4 -8,-2 C-8,-6 -5,-10 0,-10 Z" fill="#00ff88" stroke="#0a0a0a" stroke-width="0.8"></path><circle cx="0" cy="-2" r="3" fill="#0a0a0a"></circle></g><g><line x1="560.8" y1="126.8" x2="525.5" y2="233.4" stroke="#00cc6a" stroke-width="1.5" stroke-opacity="0.5"></line><line x1="525.5" y1="233.4" x2="667.8" y2="173.7" stroke="#00cc6a" stroke-width="1.5" stroke-opacity="0.5"></line><line x1="560.8" y1="126.8" x2="667.8" y2="173.7" stroke="#00cc6a" stroke-width="1.5" stroke-opacity="0.5"></line><line x1="524.3" y1="368.8" x2="646.4" y2="316.0" stroke="#00cc6a" stroke-width="1.5" stroke-opacity="0.5"></line><line x1="525.5" y1="233.4" x2="646.4" y2="316.0" stroke="#00cc6a" stroke-width="1.5" stroke-opacity="0.5"></line><line x1="524.3" y1="368.8" x2="525.5" y2="233.4" stroke="#00cc6a" stroke-width="1.5" stroke-opacity="0.5"></line><line x1="766.5" y1="267.3" x2="667.8" y2="173.7" stroke="#00cc6a" stroke-width="1.5" stroke-opacity="0.5"></line><line x1="646.4" y1="316.0" x2="667.8" y2="173.7" stroke="#00cc6a" stroke-width="1.5" stroke-opacity="0.5"></line><line x1="766.5" y1="267.3" x2="646.4" y2="316.0" stroke="#00cc6a" stroke-width="1.5" stroke-opacity="0.5"></line><line x1="667.8" y1="173.7" x2="678.6" y2="91.2" stroke="#00cc6a" stroke-width="1.5" stroke-opacity="0.5"></line><line x1="560.8" y1="126.8" x2="678.6" y2="91.2" stroke="#00cc6a" stroke-width="1.5" stroke-opacity="0.5"></line><line x1="766.5" y1="267.3" x2="799.5" y2="173.7" stroke="#00cc6a" stroke-width="1.5" stroke-opacity="0.5"></line><line x1="667.8" y1="173.7" x2="799.5" y2="173.7" stroke="#00cc6a" stroke-width="1.5" stroke-opacity="0.5"></line><line x1="784.9" y1="126.8" x2="678.6" y2="91.2" stroke="#00cc6a" stroke-width="1.5" stroke-opacity="0.5"></line><line x1="799.5" y1="173.7" x2="678.6" y2="91.2" stroke="#00cc6a" stroke-width="1.5" stroke-opacity="0.5"></line><line x1="784.9" y1="126.8" x2="799.5" y2="173.7" stroke="#00cc6a" stroke-width="1.5" stroke-opacity="0.5"></line><line x1="678.6" y1="91.2" x2="543.0" y2="99.8" stroke="#00cc6a" stroke-width="1.5" stroke-opacity="0.5"></line><line x1="560.8" y1="126.8" x2="543.0" y2="99.8" stroke="#00cc6a" stroke-width="1.5" stroke-opacity="0.5"></line><line x1="784.9" y1="126.8" x2="674.7" y2="99.8" stroke="#00cc6a" stroke-width="0.8" stroke-opacity="0.2"></line><line x1="678.6" y1="91.2" x2="674.7" y2="99.8" stroke="#00cc6a" stroke-width="0.8" stroke-opacity="0.2"></line><line x1="554.1" y1="141.6" x2="543.0" y2="99.8" stroke="#00cc6a" stroke-width="0.8" stroke-opacity="0.2"></line><line x1="674.7" y1="99.8" x2="543.0" y2="99.8" stroke="#00cc6a" stroke-width="0.8" stroke-opacity="0.2"></line><line x1="554.1" y1="141.6" x2="674.7" y2="99.8" stroke="#00cc6a" stroke-width="0.8" stroke-opacity="0.2"></line><line x1="543.0" y1="99.8" x2="448.3" y2="187.8" stroke="#00cc6a" stroke-width="1.5" stroke-opacity="0.5"></line><line x1="560.8" y1="126.8" x2="448.3" y2="187.8" stroke="#00cc6a" stroke-width="1.5" stroke-opacity="0.5"></line><line x1="554.1" y1="141.6" x2="444.4" y2="196.4" stroke="#00cc6a" stroke-width="0.8" stroke-opacity="0.2"></line><line x1="543.0" y1="99.8" x2="444.4" y2="196.4" stroke="#00cc6a" stroke-width="0.8" stroke-opacity="0.2"></line><line x1="393.1" y1="291.2" x2="448.3" y2="187.8" stroke="#00cc6a" stroke-width="1.5" stroke-opacity="0.5"></line><line x1="444.4" y1="196.4" x2="448.3" y2="187.8" stroke="#00cc6a" stroke-width="0.8" stroke-opacity="0.2"></line><line x1="393.1" y1="291.2" x2="444.4" y2="196.4" stroke="#00cc6a" stroke-width="0.8" stroke-opacity="0.2"></line><line x1="525.5" y1="233.4" x2="448.3" y2="187.8" stroke="#00cc6a" stroke-width="1.5" stroke-opacity="0.5"></line><line x1="393.1" y1="291.2" x2="426.9" y2="330.0" stroke="#00cc6a" stroke-width="1.5" stroke-opacity="0.5"></line><line x1="448.3" y1="187.8" x2="426.9" y2="330.0" stroke="#00cc6a" stroke-width="1.5" stroke-opacity="0.5"></line><line x1="525.5" y1="233.4" x2="426.9" y2="330.0" stroke="#00cc6a" stroke-width="1.5" stroke-opacity="0.5"></line><line x1="524.3" y1="368.8" x2="426.9" y2="330.0" stroke="#00cc6a" stroke-width="1.5" stroke-opacity="0.5"></line><line x1="799.5" y1="173.7" x2="870.3" y2="233.4" stroke="#00cc6a" stroke-width="1.5" stroke-opacity="0.5"></line><line x1="784.9" y1="126.8" x2="870.3" y2="233.4" stroke="#00cc6a" stroke-width="0.8" stroke-opacity="0.2"></line><line x1="766.5" y1="267.3" x2="859.5" y2="316.0" stroke="#00cc6a" stroke-width="1.5" stroke-opacity="0.5"></line><line x1="799.5" y1="173.7" x2="859.5" y2="316.0" stroke="#00cc6a" stroke-width="1.5" stroke-opacity="0.5"></line><line x1="886.9" y1="368.8" x2="870.3" y2="233.4" stroke="#00cc6a" stroke-width="0.8" stroke-opacity="0.2"></line><line x1="859.5" y1="316.0" x2="870.3" y2="233.4" stroke="#00cc6a" stroke-width="1.5" stroke-opacity="0.5"></line><line x1="886.9" y1="368.8" x2="859.5" y2="316.0" stroke="#00cc6a" stroke-width="1.5" stroke-opacity="0.5"></line><line x1="646.4" y1="316.0" x2="764.8" y2="403.9" stroke="#00cc6a" stroke-width="1.5" stroke-opacity="0.5"></line><line x1="766.5" y1="267.3" x2="764.8" y2="403.9" stroke="#00cc6a" stroke-width="1.5" stroke-opacity="0.5"></line><line x1="524.3" y1="368.8" x2="622.5" y2="463.6" stroke="#00cc6a" stroke-width="1.5" stroke-opacity="0.5"></line><line x1="646.4" y1="316.0" x2="622.5" y2="463.6" stroke="#00cc6a" stroke-width="1.5" stroke-opacity="0.5"></line><line x1="725.9" y1="518.4" x2="764.8" y2="403.9" stroke="#00cc6a" stroke-width="1.5" stroke-opacity="0.5"></line><line x1="622.5" y1="463.6" x2="764.8" y2="403.9" stroke="#00cc6a" stroke-width="1.5" stroke-opacity="0.5"></line><line x1="725.9" y1="518.4" x2="622.5" y2="463.6" stroke="#00cc6a" stroke-width="1.5" stroke-opacity="0.5"></line><line x1="426.9" y1="330.0" x2="486.8" y2="472.2" stroke="#00cc6a" stroke-width="1.5" stroke-opacity="0.5"></line><line x1="524.3" y1="368.8" x2="486.8" y2="472.2" stroke="#00cc6a" stroke-width="1.5" stroke-opacity="0.5"></line><line x1="393.1" y1="291.2" x2="409.7" y2="426.6" stroke="#00cc6a" stroke-width="1.5" stroke-opacity="0.5"></line><line x1="426.9" y1="330.0" x2="409.7" y2="426.6" stroke="#00cc6a" stroke-width="1.5" stroke-opacity="0.5"></line><line x1="495.1" y1="533.2" x2="486.8" y2="472.2" stroke="#00cc6a" stroke-width="1.5" stroke-opacity="0.5"></line><line x1="409.7" y1="426.6" x2="486.8" y2="472.2" stroke="#00cc6a" stroke-width="1.5" stroke-opacity="0.5"></line><line x1="495.1" y1="533.2" x2="409.7" y2="426.6" stroke="#00cc6a" stroke-width="1.5" stroke-opacity="0.5"></line><line x1="444.4" y1="196.4" x2="420.5" y2="344.0" stroke="#00cc6a" stroke-width="0.8" stroke-opacity="0.2"></line><line x1="393.1" y1="291.2" x2="420.5" y2="344.0" stroke="#00cc6a" stroke-width="0.8" stroke-opacity="0.2"></line><line x1="554.1" y1="141.6" x2="515.2" y2="256.1" stroke="#00cc6a" stroke-width="0.8" stroke-opacity="0.2"></line><line x1="444.4" y1="196.4" x2="515.2" y2="256.1" stroke="#00cc6a" stroke-width="0.8" stroke-opacity="0.2"></line><line x1="513.5" y1="392.7" x2="420.5" y2="344.0" stroke="#00cc6a" stroke-width="0.8" stroke-opacity="0.2"></line><line x1="515.2" y1="256.1" x2="420.5" y2="344.0" stroke="#00cc6a" stroke-width="0.8" stroke-opacity="0.2"></line><line x1="513.5" y1="392.7" x2="515.2" y2="256.1" stroke="#00cc6a" stroke-width="0.8" stroke-opacity="0.2"></line><line x1="674.7" y1="99.8" x2="657.5" y2="196.4" stroke="#00cc6a" stroke-width="0.8" stroke-opacity="0.2"></line><line x1="554.1" y1="141.6" x2="657.5" y2="196.4" stroke="#00cc6a" stroke-width="0.8" stroke-opacity="0.2"></line><line x1="784.9" y1="126.8" x2="793.2" y2="187.8" stroke="#00cc6a" stroke-width="0.8" stroke-opacity="0.2"></line><line x1="674.7" y1="99.8" x2="793.2" y2="187.8" stroke="#00cc6a" stroke-width="0.8" stroke-opacity="0.2"></line><line x1="755.7" y1="291.2" x2="657.5" y2="196.4" stroke="#00cc6a" stroke-width="0.8" stroke-opacity="0.2"></line><line x1="793.2" y1="187.8" x2="657.5" y2="196.4" stroke="#00cc6a" stroke-width="0.8" stroke-opacity="0.2"></line><line x1="755.7" y1="291.2" x2="793.2" y2="187.8" stroke="#00cc6a" stroke-width="0.8" stroke-opacity="0.2"></line><line x1="719.2" y1="533.2" x2="831.7" y2="472.2" stroke="#00cc6a" stroke-width="0.8" stroke-opacity="0.2"></line><line x1="831.7" y1="472.2" x2="737.0" y2="560.2" stroke="#00cc6a" stroke-width="0.8" stroke-opacity="0.2"></line><line x1="719.2" y1="533.2" x2="737.0" y2="560.2" stroke="#00cc6a" stroke-width="0.8" stroke-opacity="0.2"></line><line x1="886.9" y1="368.8" x2="835.6" y2="463.6" stroke="#00cc6a" stroke-width="1.5" stroke-opacity="0.5"></line><line x1="831.7" y1="472.2" x2="835.6" y2="463.6" stroke="#00cc6a" stroke-width="1.5" stroke-opacity="0.5"></line><line x1="886.9" y1="368.8" x2="831.7" y2="472.2" stroke="#00cc6a" stroke-width="0.8" stroke-opacity="0.2"></line><line x1="725.9" y1="518.4" x2="737.0" y2="560.2" stroke="#00cc6a" stroke-width="1.5" stroke-opacity="0.5"></line><line x1="835.6" y1="463.6" x2="737.0" y2="560.2" stroke="#00cc6a" stroke-width="1.5" stroke-opacity="0.5"></line><line x1="725.9" y1="518.4" x2="835.6" y2="463.6" stroke="#00cc6a" stroke-width="1.5" stroke-opacity="0.5"></line><line x1="737.0" y1="560.2" x2="601.4" y2="568.8" stroke="#00cc6a" stroke-width="0.8" stroke-opacity="0.2"></line><line x1="719.2" y1="533.2" x2="601.4" y2="568.8" stroke="#00cc6a" stroke-width="0.8" stroke-opacity="0.2"></line><line x1="725.9" y1="518.4" x2="605.3" y2="560.2" stroke="#00cc6a" stroke-width="1.5" stroke-opacity="0.5"></line><line x1="737.0" y1="560.2" x2="605.3" y2="560.2" stroke="#00cc6a" stroke-width="1.5" stroke-opacity="0.5"></line><line x1="495.1" y1="533.2" x2="601.4" y2="568.8" stroke="#00cc6a" stroke-width="0.8" stroke-opacity="0.2"></line><line x1="605.3" y1="560.2" x2="601.4" y2="568.8" stroke="#00cc6a" stroke-width="1.5" stroke-opacity="0.5"></line><line x1="495.1" y1="533.2" x2="605.3" y2="560.2" stroke="#00cc6a" stroke-width="1.5" stroke-opacity="0.5"></line><line x1="601.4" y1="568.8" x2="612.2" y2="486.3" stroke="#00cc6a" stroke-width="0.8" stroke-opacity="0.2"></line><line x1="719.2" y1="533.2" x2="612.2" y2="486.3" stroke="#00cc6a" stroke-width="0.8" stroke-opacity="0.2"></line><line x1="495.1" y1="533.2" x2="480.5" y2="486.3" stroke="#00cc6a" stroke-width="0.8" stroke-opacity="0.2"></line><line x1="601.4" y1="568.8" x2="480.5" y2="486.3" stroke="#00cc6a" stroke-width="0.8" stroke-opacity="0.2"></line><line x1="513.5" y1="392.7" x2="612.2" y2="486.3" stroke="#00cc6a" stroke-width="0.8" stroke-opacity="0.2"></line><line x1="480.5" y1="486.3" x2="612.2" y2="486.3" stroke="#00cc6a" stroke-width="0.8" stroke-opacity="0.2"></line><line x1="513.5" y1="392.7" x2="480.5" y2="486.3" stroke="#00cc6a" stroke-width="0.8" stroke-opacity="0.2"></line><line x1="612.2" y1="486.3" x2="754.5" y2="426.6" stroke="#00cc6a" stroke-width="0.8" stroke-opacity="0.2"></line><line x1="719.2" y1="533.2" x2="754.5" y2="426.6" stroke="#00cc6a" stroke-width="0.8" stroke-opacity="0.2"></line><line x1="513.5" y1="392.7" x2="633.6" y2="344.0" stroke="#00cc6a" stroke-width="0.8" stroke-opacity="0.2"></line><line x1="612.2" y1="486.3" x2="633.6" y2="344.0" stroke="#00cc6a" stroke-width="0.8" stroke-opacity="0.2"></line><line x1="755.7" y1="291.2" x2="754.5" y2="426.6" stroke="#00cc6a" stroke-width="0.8" stroke-opacity="0.2"></line><line x1="633.6" y1="344.0" x2="754.5" y2="426.6" stroke="#00cc6a" stroke-width="0.8" stroke-opacity="0.2"></line><line x1="755.7" y1="291.2" x2="633.6" y2="344.0" stroke="#00cc6a" stroke-width="0.8" stroke-opacity="0.2"></line><line x1="831.7" y1="472.2" x2="754.5" y2="426.6" stroke="#00cc6a" stroke-width="0.8" stroke-opacity="0.2"></line><line x1="755.7" y1="291.2" x2="853.1" y2="330.0" stroke="#00cc6a" stroke-width="0.8" stroke-opacity="0.2"></line><line x1="754.5" y1="426.6" x2="853.1" y2="330.0" stroke="#00cc6a" stroke-width="0.8" stroke-opacity="0.2"></line><line x1="831.7" y1="472.2" x2="853.1" y2="330.0" stroke="#00cc6a" stroke-width="0.8" stroke-opacity="0.2"></line><line x1="886.9" y1="368.8" x2="853.1" y2="330.0" stroke="#00cc6a" stroke-width="0.8" stroke-opacity="0.2"></line><line x1="764.8" y1="403.9" x2="835.6" y2="463.6" stroke="#00cc6a" stroke-width="1.5" stroke-opacity="0.5"></line><line x1="859.5" y1="316.0" x2="835.6" y2="463.6" stroke="#00cc6a" stroke-width="1.5" stroke-opacity="0.5"></line><line x1="859.5" y1="316.0" x2="764.8" y2="403.9" stroke="#00cc6a" stroke-width="1.5" stroke-opacity="0.5"></line><line x1="486.8" y1="472.2" x2="605.3" y2="560.2" stroke="#00cc6a" stroke-width="1.5" stroke-opacity="0.5"></line><line x1="622.5" y1="463.6" x2="605.3" y2="560.2" stroke="#00cc6a" stroke-width="1.5" stroke-opacity="0.5"></line><line x1="622.5" y1="463.6" x2="486.8" y2="472.2" stroke="#00cc6a" stroke-width="1.5" stroke-opacity="0.5"></line><line x1="420.5" y1="344.0" x2="480.5" y2="486.3" stroke="#00cc6a" stroke-width="0.8" stroke-opacity="0.2"></line><line x1="409.7" y1="426.6" x2="480.5" y2="486.3" stroke="#00cc6a" stroke-width="0.8" stroke-opacity="0.2"></line><line x1="409.7" y1="426.6" x2="420.5" y2="344.0" stroke="#00cc6a" stroke-width="0.8" stroke-opacity="0.2"></line><line x1="657.5" y1="196.4" x2="633.6" y2="344.0" stroke="#00cc6a" stroke-width="0.8" stroke-opacity="0.2"></line><line x1="515.2" y1="256.1" x2="633.6" y2="344.0" stroke="#00cc6a" stroke-width="0.8" stroke-opacity="0.2"></line><line x1="515.2" y1="256.1" x2="657.5" y2="196.4" stroke="#00cc6a" stroke-width="0.8" stroke-opacity="0.2"></line><line x1="870.3" y1="233.4" x2="853.1" y2="330.0" stroke="#00cc6a" stroke-width="0.8" stroke-opacity="0.2"></line><line x1="793.2" y1="187.8" x2="853.1" y2="330.0" stroke="#00cc6a" stroke-width="0.8" stroke-opacity="0.2"></line><line x1="870.3" y1="233.4" x2="793.2" y2="187.8" stroke="#00cc6a" stroke-width="0.8" stroke-opacity="0.2"></line></g><g><circle cx="560.8" cy="126.8" r="6.7" fill="#0a0a0a" stroke="#00ef7e" stroke-width="2" opacity="1"></circle><circle cx="784.9" cy="126.8" r="3.0" fill="#48ffa2" stroke="#0a0a0a" stroke-width="0" opacity="0.45"></circle><circle cx="495.1" cy="533.2" r="4.8" fill="#00e177" stroke="#0a0a0a" stroke-width="1" opacity="1"></circle><circle cx="719.2" cy="533.2" r="3.0" fill="#27ff96" stroke="#0a0a0a" stroke-width="0" opacity="0.45"></circle><circle cx="725.9" cy="518.4" r="7.0" fill="#2bff97" stroke="#0a0a0a" stroke-width="1" opacity="1"></circle><circle cx="766.5" cy="267.3" r="8.2" fill="#3fff9e" stroke="#0a0a0a" stroke-width="1" opacity="1"></circle><circle cx="513.5" cy="392.7" r="3.0" fill="#00e579" stroke="#0a0a0a" stroke-width="0" opacity="0.45"></circle><circle cx="554.1" cy="141.6" r="3.0" fill="#00ed7e" stroke="#0a0a0a" stroke-width="0" opacity="0.45"></circle><circle cx="755.7" cy="291.2" r="3.0" fill="#39ff9c" stroke="#0a0a0a" stroke-width="0" opacity="0.45"></circle><circle cx="886.9" cy="368.8" r="3.0" fill="#0a0a0a" stroke="#7affb3" stroke-width="2" opacity="0.5"></circle><circle cx="393.1" cy="291.2" r="4.6" fill="#00cd6a" stroke="#0a0a0a" stroke-width="1" opacity="1"></circle><circle cx="524.3" cy="368.8" r="8.4" fill="#00e77a" stroke="#0a0a0a" stroke-width="1" opacity="1"></circle><circle cx="525.5" cy="233.4" r="8.1" fill="#00e87a" stroke="#0a0a0a" stroke-width="1" opacity="1"></circle><circle cx="646.4" cy="316.0" r="9.0" fill="#03ff89" stroke="#0a0a0a" stroke-width="1" opacity="1"></circle><circle cx="667.8" cy="173.7" r="8.0" fill="#0eff8d" stroke="#0a0a0a" stroke-width="1" opacity="1"></circle><circle cx="799.5" cy="173.7" r="6.5" fill="#4fffa4" stroke="#0a0a0a" stroke-width="1" opacity="1"></circle><circle cx="678.6" cy="91.2" r="5.6" fill="#13ff8f" stroke="#0a0a0a" stroke-width="1" opacity="1"></circle><circle cx="674.7" cy="99.8" r="3.0" fill="#11ff8e" stroke="#0a0a0a" stroke-width="0" opacity="0.45"></circle><circle cx="543.0" cy="99.8" r="3.0" fill="#0a0a0a" stroke="#00eb7c" stroke-width="2" opacity="0.5"></circle><circle cx="444.4" cy="196.4" r="3.0" fill="#00d771" stroke="#0a0a0a" stroke-width="0" opacity="0.45"></circle><circle cx="448.3" cy="187.8" r="5.8" fill="#00d871" stroke="#0a0a0a" stroke-width="1" opacity="1"></circle><circle cx="426.9" cy="330.0" r="6.9" fill="#00d46e" stroke="#0a0a0a" stroke-width="1" opacity="1"></circle><circle cx="859.5" cy="316.0" r="6.6" fill="#6dffaf" stroke="#0a0a0a" stroke-width="1" opacity="1"></circle><circle cx="870.3" cy="233.4" r="3.0" fill="#72ffb1" stroke="#0a0a0a" stroke-width="0" opacity="0.45"></circle><circle cx="622.5" cy="463.6" r="8.3" fill="#00fb86" stroke="#0a0a0a" stroke-width="1" opacity="1"></circle><circle cx="764.8" cy="403.9" r="8.2" fill="#3eff9e" stroke="#0a0a0a" stroke-width="1" opacity="1"></circle><circle cx="409.7" cy="426.6" r="4.7" fill="#00d06c" stroke="#0a0a0a" stroke-width="1" opacity="1"></circle><circle cx="486.8" cy="472.2" r="7.0" fill="#0a0a0a" stroke="#00e076" stroke-width="2" opacity="1"></circle><circle cx="515.2" cy="256.1" r="3.0" fill="#00e679" stroke="#0a0a0a" stroke-width="0" opacity="0.45"></circle><circle cx="420.5" cy="344.0" r="3.0" fill="#00d26e" stroke="#0a0a0a" stroke-width="0" opacity="0.45"></circle><circle cx="793.2" cy="187.8" r="3.0" fill="#4cffa3" stroke="#0a0a0a" stroke-width="0" opacity="0.45"></circle><circle cx="657.5" cy="196.4" r="3.0" fill="#09ff8b" stroke="#0a0a0a" stroke-width="0" opacity="0.45"></circle><circle cx="831.7" cy="472.2" r="3.0" fill="#5fffaa" stroke="#0a0a0a" stroke-width="0" opacity="0.45"></circle><circle cx="835.6" cy="463.6" r="5.9" fill="#61ffaa" stroke="#0a0a0a" stroke-width="1" opacity="1"></circle><circle cx="737.0" cy="560.2" r="4.7" fill="#30ff99" stroke="#0a0a0a" stroke-width="1" opacity="1"></circle><circle cx="605.3" cy="560.2" r="6.1" fill="#00f884" stroke="#0a0a0a" stroke-width="1" opacity="1"></circle><circle cx="601.4" cy="568.8" r="3.0" fill="#0a0a0a" stroke="#00f783" stroke-width="2" opacity="0.5"></circle><circle cx="480.5" cy="486.3" r="3.0" fill="#00de75" stroke="#0a0a0a" stroke-width="0" opacity="0.45"></circle><circle cx="612.2" cy="486.3" r="3.0" fill="#00f985" stroke="#0a0a0a" stroke-width="0" opacity="0.45"></circle><circle cx="633.6" cy="344.0" r="3.0" fill="#00fe87" stroke="#0a0a0a" stroke-width="0" opacity="0.45"></circle><circle cx="754.5" cy="426.6" r="3.0" fill="#39ff9c" stroke="#0a0a0a" stroke-width="0" opacity="0.45"></circle><circle cx="853.1" cy="330.0" r="3.0" fill="#6affae" stroke="#0a0a0a" stroke-width="0" opacity="0.45"></circle></g><g font-family="Arial, &#39;Helvetica Neue&#39;, sans-serif" font-weight="800" text-anchor="middle"><text x="640" y="660" font-size="118" letter-spacing="3"><tspan fill="#f0f0f0">PARVO</tspan><tspan fill="#00ff88">MAPS</tspan></text><text x="640" y="710" font-size="32" font-weight="700" letter-spacing="4" fill="#888888">US CANINE PATHOGEN TRACKING &amp; MAPPING</text></g></svg>